<svg xmlns="http://www.w3.org/2000/svg" version="1.1" xmlns:xlink="http://www.w3.org/1999/xlink" xmlns:svgjs="http://svgjs.com/svgjs" width="32" height="32"><svg width="32" height="32" viewBox="0 0 32 32" fill="none" xmlns="http://www.w3.org/2000/svg">
<circle cx="16" cy="16" r="16" fill="#444446"></circle>
<path d="M23.896 9C23.944 9 23.968 9.048 23.968 9.144C23.968 9.24 23.944 9.288 23.896 9.288C23.224 9.288 22.736 9.472 22.432 9.84C22.128 10.208 21.976 10.808 21.976 11.64V24.288C21.976 24.32 21.936 24.344 21.856 24.36C21.776 24.376 21.72 24.368 21.688 24.336L10.648 10.968L10.432 10.728V21.384C10.432 22.216 10.576 22.816 10.864 23.184C11.168 23.536 11.648 23.712 12.304 23.712C12.352 23.712 12.376 23.76 12.376 23.856C12.376 23.952 12.352 24 12.304 24C11.904 24 11.6 23.992 11.392 23.976L10.192 23.952L8.968 23.976C8.744 23.992 8.416 24 7.984 24C7.952 24 7.936 23.952 7.936 23.856C7.936 23.76 7.952 23.712 7.984 23.712C8.672 23.712 9.16 23.536 9.448 23.184C9.736 22.816 9.88 22.216 9.88 21.384V10.152C9.256 9.576 8.624 9.288 7.984 9.288C7.936 9.288 7.912 9.24 7.912 9.144C7.912 9.048 7.936 9 7.984 9L8.872 9.024C9.064 9.04 9.328 9.048 9.664 9.048C10.016 9.048 10.304 9.04 10.528 9.024C10.752 9.008 10.928 9 11.056 9C11.184 9 11.272 9.032 11.32 9.096C11.384 9.144 11.48 9.264 11.608 9.456C11.8 9.744 11.992 10.008 12.184 10.248L21.424 21.6V11.64C21.424 10.808 21.28 10.208 20.992 9.84C20.72 9.472 20.256 9.288 19.6 9.288C19.568 9.288 19.552 9.24 19.552 9.144C19.552 9.048 19.568 9 19.6 9L20.536 9.024C21.016 9.056 21.408 9.072 21.712 9.072C22 9.072 22.4 9.056 22.912 9.024L23.896 9Z" fill="#EBE7DC"></path>
</svg><style>@media (prefers-color-scheme: light) { :root { filter: none; } }
</style></svg>