<svg viewBox="0 0 735 586" fill="none" xmlns="http://www.w3.org/2000/svg"><path d="M60.748 435.425c101.156 63.915 475.821-327.212 529.065-313.553M411.709 303.444c-25.517 2.419-43.802-11.588-51.127-19.167 8.365-5.29 24.423-15.294 49.94-17.712 13.275-1.259 26.619 1.655 37.241 6.059 5.307 2.2 9.912 4.763 13.472 7.342 3.223 2.335 5.527 4.639 6.749 6.647-1.393 1.172-3.661 2.556-6.708 4.033-3.504 1.699-7.946 3.477-13.063 5.164-10.235 3.374-23.115 6.365-36.504 7.634z" stroke="#EBE7DC" stroke-width="2"/><path d="M355.941 229.717c-9.669 23.707-1.423 44.3 3.782 53.009 7.514-6.746 21.778-19.726 31.448-43.433 5.033-12.339 6.059-25.699 4.864-36.811-.596-5.552-1.745-10.52-3.21-14.496-1.324-3.595-2.881-6.31-4.463-7.933-1.531 1.057-3.516 2.895-5.814 5.451-2.647 2.943-5.641 6.761-8.741 11.242-6.199 8.961-12.79 20.528-17.866 32.971zM286.537 261.192c-3.573 16.931-1.863 33.477 1.53 46.316 1.695 6.416 3.806 11.887 5.873 15.999 1.033 2.057 2.05 3.763 2.991 5.073.785 1.091 1.491 1.872 2.084 2.356.791-.326 1.745-.912 2.846-1.794 1.315-1.054 2.781-2.482 4.35-4.258 3.137-3.551 6.627-8.427 10.088-14.309 6.923-11.763 13.681-27.463 17.267-44.457 3.573-16.928 1.855-34.312-2.152-48.332-2.003-7.006-4.571-13.151-7.318-17.959-2.543-4.451-5.2-7.688-7.645-9.435-1.754 1.687-3.925 4.554-6.33 8.454-2.679 4.342-5.594 9.876-8.492 16.278-5.795 12.805-11.497 29.033-15.092 46.068zM212.256 300.072c-6.211 20.15-5.966 40.411-3.272 56.357 1.347 7.97 3.302 14.842 5.356 20.064 1.027 2.611 2.074 4.798 3.075 6.499.867 1.473 1.676 2.539 2.377 3.203 1.052-.304 2.34-.935 3.841-1.928 1.727-1.142 3.672-2.721 5.775-4.705 4.206-3.968 8.983-9.501 13.832-16.253 9.698-13.501 19.63-31.793 25.859-52.005 6.21-20.147 6.049-41.426 2.74-58.872-1.654-8.72-4.09-16.459-6.892-22.601-2.634-5.772-5.558-10.058-8.398-12.449-2.363 1.851-5.382 5.151-8.803 9.711-3.732 4.974-7.88 11.363-12.101 18.804-8.441 14.882-17.147 33.922-23.389 54.175zM114.552 347.723c-2.133 20.97 2.087 40.782 7.862 55.885 2.886 7.548 6.154 13.901 9.194 18.617 1.52 2.358 2.977 4.297 4.293 5.768 1.14 1.274 2.143 2.16 2.962 2.674.972-.504 2.112-1.376 3.389-2.644 1.469-1.457 3.067-3.386 4.74-5.743 3.347-4.715 6.945-11.074 10.375-18.643 6.86-15.136 13.009-35.013 15.149-56.047 2.133-20.966-2.205-41.792-8.878-58.245-3.335-8.223-7.244-15.332-11.2-20.804-3.717-5.141-7.427-8.769-10.683-10.556-1.954 2.277-4.268 6.104-6.728 11.244-2.683 5.608-5.496 12.683-8.175 20.805-5.356 16.243-10.155 36.613-12.3 57.689zM379.85 315.13c17.647-.556 32.858 3.967 43.998 9.574 5.569 2.803 10.107 5.869 13.413 8.692 3.095 2.642 5.032 5.005 5.786 6.683-.506.83-1.327 1.784-2.487 2.838-1.342 1.22-3.089 2.527-5.202 3.876-4.226 2.697-9.848 5.517-16.464 8.109-13.231 5.184-30.342 9.42-48.043 9.977-17.625.555-34.548-4.694-47.623-11.764-6.534-3.533-12.086-7.509-16.27-11.42-3.652-3.413-6.215-6.732-7.508-9.619 2.701-.381 6.416-1.357 10.836-2.622a829.169 829.169 0 006.385-1.864c3.931-1.157 8.27-2.435 12.945-3.725 14.717-4.062 32.526-8.178 50.234-8.735zM318.114 365.75c21.502-.677 40.034 4.835 53.605 11.665 6.784 3.414 12.315 7.151 16.348 10.594 3.824 3.265 6.22 6.198 7.123 8.283-.628 1.064-1.667 2.28-3.136 3.614-1.647 1.497-3.785 3.095-6.364 4.742-5.158 3.291-12.01 6.728-20.069 9.885-16.115 6.314-36.953 11.473-58.509 12.152-21.482.676-42.096-5.72-58.02-14.33-7.957-4.303-14.722-9.148-19.823-13.915-4.566-4.267-7.748-8.426-9.293-12.033 3.285-.425 7.909-1.634 13.476-3.226 2.409-.689 5.001-1.453 7.76-2.265 4.783-1.409 10.065-2.964 15.752-4.534 17.905-4.941 39.586-9.953 61.15-10.632zM239.296 427.379c21.306 2.927 38.648 11.459 50.88 20.464 6.115 4.501 10.941 9.111 14.338 13.18 3.223 3.859 5.093 7.152 5.634 9.359-.798.945-2.026 1.971-3.697 3.041-1.874 1.201-4.249 2.42-7.066 3.612-5.636 2.384-12.965 4.628-21.437 6.394-16.941 3.533-38.344 5.137-59.703 2.203-21.287-2.924-40.533-12.677-54.786-23.83-7.122-5.574-12.978-11.482-17.207-17.036-3.786-4.972-6.226-9.605-7.144-13.421 3.309.13 8.069-.289 13.823-.929 2.49-.277 5.173-.597 8.028-.937 4.95-.589 10.417-1.24 16.285-1.837 18.475-1.88 40.684-3.198 62.052-.263zM475.314 243.237c-24.256 6.437-44.053-2.422-52.421-7.748 7.429-6.133 22.202-18.172 46.462-24.609 12.713-3.373 26.128-3.13 37.119-1.128 5.492 1.001 10.357 2.437 14.207 4.065 3.4 1.437 5.933 2.993 7.429 4.473-1.196 1.253-3.2 2.852-5.928 4.674-3.222 2.151-7.367 4.555-12.181 6.995-9.628 4.881-21.882 9.881-34.687 13.278zM417.814 185.513c-9.097 21.784-1.105 40.745 3.938 48.793 7.167-6.216 20.714-18.148 29.811-39.932 4.74-11.351 5.641-23.653 4.429-33.892-.606-5.115-1.737-9.692-3.164-13.356-1.286-3.305-2.789-5.801-4.308-7.297-1.447.969-3.323 2.648-5.496 4.985-2.515 2.707-5.358 6.218-8.3 10.343-5.883 8.248-12.125 18.897-16.91 30.356zM524.258 188.512c-19 6.39-35.042 2.173-42.246-.849 5.852-4.943 16.783-13.809 35.794-20.204 10.196-3.429 21.086-4.376 30.068-3.885 4.488.245 8.479.848 11.65 1.668 2.567.664 4.52 1.451 5.772 2.256-.924.913-2.351 2.06-4.249 3.379-2.476 1.72-5.674 3.677-9.416 5.716-7.483 4.079-17.096 8.462-27.373 11.919zM579.643 158.843c-20.028.768-34.222-7.807-40.277-12.74 7.01-3.09 19.999-8.512 40.04-9.282 10.748-.412 21.46 1.754 29.935 4.76 4.236 1.502 7.893 3.206 10.702 4.888 2.274 1.362 3.925 2.669 4.898 3.794-1.144.616-2.837 1.314-5.03 2.043-2.861.952-6.482 1.927-10.646 2.828-8.329 1.801-18.788 3.293-29.622 3.709zM483.495 147.502c-8.729 17.074-4.72 32.645-1.687 39.574 6.05-4.812 17.141-13.916 25.869-30.989 4.621-9.039 6.437-19.025 6.468-27.421.016-4.194-.413-7.97-1.148-11.011-.63-2.603-1.467-4.6-2.385-5.869-1.132.735-2.607 1.958-4.342 3.65-2.144 2.092-4.612 4.828-7.212 8.06-5.2 6.465-10.893 14.873-15.563 24.006zM545.673 104.954c-11.135 15.617-9.454 31.61-7.469 38.91 6.689-3.876 18.991-11.263 30.126-26.879 5.895-8.268 9.154-17.883 10.416-26.186.63-4.148.759-7.946.477-11.063-.24-2.668-.775-4.765-1.498-6.155-1.226.561-2.865 1.556-4.828 2.976-2.427 1.756-5.269 4.102-8.314 6.92-6.09 5.636-12.953 13.123-18.91 21.477zM618.134 130.419c-14.185.68-24.181-5.231-28.638-8.843 5.238-2.349 14.64-6.237 28.829-6.917 7.797-.374 15.529 1.149 21.627 3.307 3.046 1.078 5.665 2.307 7.666 3.522 1.471.893 2.554 1.747 3.238 2.489-.805.41-1.925.872-3.345 1.36-2.089.718-4.734 1.46-7.777 2.152-6.086 1.383-13.716 2.552-21.6 2.93z" stroke="#EBE7DC" stroke-width="2"/></svg>