<svg width="340" height="169" viewBox="0 0 340 169" fill="none" xmlns="http://www.w3.org/2000/svg">
<path d="M-29.6713 118.141C21.0218 26.5341 250.311 151.239 285.406 118.35" stroke="#EBE7DC" stroke-width="2"/>
<path d="M104.086 54.1073C82.5049 59.5517 71.5577 76.2715 67.6908 84.6961C76.1759 86.612 92.2561 90.0664 113.836 84.6223C125.127 81.7738 135.258 75.4711 142.714 68.7361C146.439 65.3714 149.479 61.9146 151.652 58.7529C153.587 55.9375 154.793 53.4167 155.228 51.4397C153.753 50.9058 151.53 50.4458 148.658 50.1294C145.279 49.757 141.101 49.5934 136.392 49.7028C126.973 49.9216 115.486 51.2312 104.086 54.1073Z" stroke="#EBE7DC" stroke-width="2"/>
<path d="M94.7707 123.368C75.1546 112.908 69.1508 94.6217 67.7411 85.81C76.6094 86.1491 93.3542 86.9598 112.969 97.4192C123.238 102.895 131.389 111.295 136.794 119.428C139.495 123.491 141.497 127.469 142.733 130.955C143.831 134.053 144.3 136.696 144.169 138.642C142.571 138.769 140.264 138.641 137.364 138.218C133.943 137.719 129.799 136.827 125.211 135.547C116.035 132.988 105.138 128.896 94.7707 123.368Z" stroke="#EBE7DC" stroke-width="2"/>
<path d="M36.7782 139.095C22.8064 133.293 11.7189 123.877 4.13471 115.081C0.344783 110.685 -2.55734 106.458 -4.50049 102.939C-5.47231 101.178 -6.19856 99.605 -6.67655 98.2836C-7.06153 97.2194 -7.27111 96.3569 -7.33526 95.7111C-6.7288 95.3278 -5.86979 94.9509 -4.73802 94.609C-3.33644 94.1857 -1.58883 93.8378 0.463804 93.5872C4.5681 93.0862 9.80561 92.985 15.7592 93.4025C27.6645 94.2375 42.3299 97.1397 56.3615 102.966C70.3298 108.766 82.0188 118.603 90.1516 128.427C94.2154 133.336 97.3766 138.224 99.4854 142.577C101.413 146.558 102.427 150.021 102.504 152.615C100.437 153.022 97.3498 153.159 93.4202 152.965C88.9665 152.746 83.5347 152.107 77.4825 151.026C65.3779 148.863 50.8489 144.938 36.7782 139.095Z" stroke="#EBE7DC" stroke-width="2"/>
<path d="M57.7686 65.6601C70.5401 57.0156 78.9863 46.023 83.9967 36.3473C86.5013 31.5106 88.14 27.0168 89.0319 23.3289C89.8577 19.9142 90.0191 17.2866 89.7127 15.7266C88.9529 15.4185 87.9185 15.1748 86.6007 15.0279C85.0344 14.8534 83.135 14.8228 80.9511 14.9504C76.5838 15.2056 71.1626 16.0883 65.15 17.6427C53.1261 20.7513 38.8396 26.5198 26.0235 35.1944C13.2689 43.8275 3.98211 56.2104 -1.64886 67.9164C-4.46229 73.7651 -6.3527 79.4237 -7.30866 84.3322C-8.12617 88.5298 -8.2483 92.1186 -7.72621 94.7919C-5.60772 93.6952 -2.5314 92.5067 1.14503 91.174C2.84412 90.5581 4.67904 89.9089 6.6302 89.2186C10.0095 88.023 13.7374 86.7041 17.7122 85.2209C30.2234 80.5524 44.9455 74.3394 57.7686 65.6601Z" stroke="#EBE7DC" stroke-width="2"/>
<path d="M186.655 71.9445C165.39 76.6226 153.58 91.2594 149.148 98.7846C157.436 100.585 173.65 103.938 194.919 99.2595C206.138 96.7913 216.459 91.2337 224.195 85.2782C228.061 82.3025 231.263 79.2412 233.599 76.4388C235.619 74.0166 236.94 71.8475 237.525 70.1346C236.107 69.6632 233.964 69.2395 231.195 68.926C227.833 68.5453 223.65 68.3373 218.932 68.3692C209.494 68.433 197.967 69.456 186.655 71.9445Z" stroke="#EBE7DC" stroke-width="2"/>
<path d="M166.142 139.192C150.123 126.416 148.204 108.677 148.654 100.336C156.805 102.097 172.096 105.58 188.115 118.355C196.51 125.051 202.37 134.09 205.746 142.442C207.432 146.613 208.489 150.592 208.936 153.994C209.332 157.01 209.239 159.505 208.734 161.266C207.243 161.12 205.153 160.629 202.572 159.774C199.511 158.76 195.857 157.265 191.869 155.342C183.891 151.495 174.628 145.96 166.142 139.192Z" stroke="#EBE7DC" stroke-width="2"/>
<path d="M243.491 96.862C226.43 99.9213 215.959 109.725 211.637 115.097C218.248 116.427 230.273 118.544 247.344 115.483C256.591 113.825 265.33 109.974 272.003 105.823C275.338 103.749 278.14 101.611 280.22 99.6536C281.841 98.1288 282.971 96.7621 283.601 95.6584C282.528 95.3684 281.016 95.106 279.102 94.9039C276.484 94.6274 273.211 94.4725 269.486 94.4832C262.036 94.5048 252.823 95.1886 243.491 96.862Z" stroke="#EBE7DC" stroke-width="2"/>
<path d="M229.545 145.266C215.807 135.944 212.281 122.486 211.652 115.855C218.353 117.009 230.573 119.362 244.308 128.683C251.64 133.658 257.226 140.539 260.779 146.954C262.553 150.159 263.81 153.228 264.524 155.861C265.119 158.054 265.319 159.881 265.176 161.213C264.026 161.113 262.439 160.802 260.475 160.256C257.956 159.556 254.917 158.499 251.566 157.116C244.863 154.349 236.964 150.301 229.545 145.266Z" stroke="#EBE7DC" stroke-width="2"/>
<path d="M306.026 104.696C294.246 107.976 287.597 115.459 284.826 119.702C289.851 120.211 298.624 120.791 310.405 117.51C316.967 115.683 322.961 112.3 327.428 108.838C329.659 107.109 331.493 105.372 332.817 103.819C333.733 102.744 334.369 101.799 334.741 101.034C333.99 100.932 333.001 100.865 331.787 100.851C329.861 100.828 327.466 100.938 324.752 101.199C319.324 101.722 312.672 102.845 306.026 104.696Z" stroke="#EBE7DC" stroke-width="2"/>
</svg>
