<svg viewBox="0 0 298 676" fill="none" xmlns="http://www.w3.org/2000/svg"><path d="M126.266 674.821c104.699-57.931-57.934-574.559-20.345-614.665M179.412 303.649c-10.156 23.533-31.232 32.824-41.4 35.6-.613-9.878-1.658-28.769 8.498-52.302 5.284-12.243 14.258-22.54 23.229-29.733 4.482-3.594 8.945-6.398 12.919-8.278 3.597-1.702 6.725-2.613 9.073-2.719.358 1.785.48 4.439.309 7.821-.196 3.89-.775 8.639-1.758 13.937-1.966 10.595-5.541 23.326-10.87 35.674z" stroke="#EBE7DC" stroke-width="2"/><path d="M87.948 317.068c16.131 19.883 38.152 22.561 48.291 22.188-2.299-9.832-6.816-28.583-22.946-48.465-8.396-10.349-19.615-17.676-29.931-21.975-5.154-2.148-10.062-3.531-14.253-4.16-3.788-.568-6.918-.509-9.101.097.19 1.85.846 4.475 1.98 7.719 1.308 3.737 3.214 8.198 5.651 13.071 4.874 9.746 11.843 21.089 20.31 31.525zM82.15 393.055c13.124 11.278 28.452 17.739 41.34 20.942 6.44 1.6 12.252 2.382 16.851 2.549 2.3.083 4.285.012 5.887-.183 1.334-.162 2.358-.406 3.068-.692.095-.851.04-1.97-.204-3.358-.291-1.661-.838-3.633-1.64-5.863-1.604-4.458-4.199-9.863-7.69-15.728-6.982-11.728-17.495-25.206-30.667-36.526-13.121-11.276-29.188-18.134-43.407-21.366-7.105-1.615-13.727-2.319-19.264-2.224-5.126.087-9.242.859-11.95 2.162.635 2.35 2.105 5.633 4.366 9.617 2.518 4.437 5.967 9.655 10.186 15.276 8.437 11.241 19.92 24.046 33.125 35.394zM80.498 476.88c14.677 15.139 32.557 24.672 47.832 29.982 7.635 2.653 14.6 4.245 20.166 4.957 2.783.356 5.204.491 7.177.431 1.708-.051 3.032-.247 3.952-.542.239-1.069.306-2.502.157-4.296-.17-2.063-.618-4.527-1.346-7.326-1.455-5.597-4.008-12.445-7.593-19.945-7.171-14.998-18.428-32.504-33.151-47.69-14.674-15.136-33.406-25.232-50.293-30.725-8.44-2.745-16.396-4.334-23.129-4.832-6.327-.468-11.49.034-14.953 1.373.485 2.962 1.926 7.197 4.277 12.39 2.566 5.664 6.17 12.374 10.663 19.654 8.986 14.561 21.489 31.353 36.24 46.569zM75.266 585.458c17.357 11.959 36.756 17.792 52.775 19.995 8.006 1.101 15.148 1.292 20.744.896 2.799-.198 5.2-.542 7.122-.988 1.665-.387 2.925-.84 3.77-1.31.025-1.095-.191-2.513-.688-4.243-.571-1.989-1.493-4.318-2.754-6.919-2.524-5.202-6.368-11.416-11.352-18.064-9.969-13.296-24.436-28.249-41.847-40.245-17.353-11.957-37.698-18.173-55.332-20.239-8.813-1.033-16.927-1.026-23.626-.19-6.296.785-11.261 2.292-14.394 4.286 1.056 2.809 3.298 6.678 6.62 11.308 3.626 5.05 8.475 10.92 14.306 17.176 11.663 12.511 27.211 26.518 44.656 38.537zM174.329 337.201c8.003-15.737 19.286-26.896 29.561-33.965 5.137-3.534 10.008-6.037 14.073-7.577 3.806-1.442 6.809-2.004 8.643-1.857.483.842.926 2.021 1.291 3.545.424 1.764.729 3.924.895 6.426.331 5.002.099 11.287-.812 18.334-1.821 14.093-6.34 31.132-14.367 46.917-7.993 15.719-20.736 28.029-33.225 36.091-6.24 4.028-12.398 6.982-17.839 8.769-4.749 1.559-8.892 2.209-12.045 1.954.965-2.552 1.897-6.278 2.915-10.761.457-2.012.933-4.184 1.438-6.495.877-4.003 1.844-8.421 2.962-13.14 3.52-14.856 8.479-32.449 16.51-48.241zM189.005 415.676c9.751-19.176 23.498-32.77 36.015-41.382 6.257-4.305 12.194-7.355 17.152-9.234 4.703-1.782 8.427-2.471 10.689-2.26.63 1.063 1.197 2.559 1.66 4.488.519 2.164.893 4.807 1.095 7.86.404 6.106.12 13.767-.989 22.35-2.218 17.166-7.721 37.915-17.497 57.139-9.742 19.158-25.267 34.153-40.475 43.97-7.601 4.906-15.103 8.505-21.736 10.684-5.937 1.949-11.114 2.739-15.02 2.357 1.208-3.084 2.373-7.719 3.655-13.366.555-2.443 1.133-5.083 1.748-7.893 1.066-4.87 2.244-10.249 3.604-15.99 4.282-18.073 10.319-39.492 20.099-58.723zM205.112 514.423c12.817-17.27 28.64-28.368 42.419-34.76 6.888-3.195 13.251-5.207 18.453-6.228 4.934-.969 8.72-1.024 10.915-.436.444 1.153.753 2.724.888 4.703.15 2.221.077 4.89-.234 7.933-.621 6.088-2.18 13.593-4.707 21.869-5.054 16.552-13.945 36.086-26.793 53.4-12.805 17.254-30.615 29.434-47.249 36.563-8.312 3.563-16.31 5.854-23.213 6.889-6.18.927-11.416.837-15.203-.194 1.706-2.838 3.629-7.213 5.836-12.565a1060.13 1060.13 0 003.041-7.488c1.865-4.623 3.925-9.729 6.224-15.161 7.241-17.101 16.77-37.204 29.623-54.525zM157.232 218.923c-6.027 24.361-23.317 37.455-32.012 42.228-1.803-9.463-5.25-28.206.779-52.571 3.159-12.768 9.826-24.411 16.869-33.083 3.52-4.333 7.119-7.908 10.399-10.5 2.895-2.289 5.478-3.761 7.496-4.36.522 1.651.96 4.177 1.244 7.446.336 3.859.449 8.649.273 14.044-.354 10.788-1.866 23.936-5.048 36.796zM78.963 241.56c14.722 18.456 35.189 20.571 44.671 20.023-2.002-9.275-5.944-26.891-20.665-45.347-7.67-9.616-18.022-16.324-27.581-20.187-4.776-1.93-9.333-3.141-13.231-3.653-3.516-.462-6.428-.346-8.47.267.153 1.734.723 4.187 1.727 7.216 1.162 3.507 2.873 7.689 5.073 12.252 4.401 9.126 10.733 19.721 18.476 29.429zM132.803 149.687c-3.538 19.731-14.953 31.766-21.069 36.627-1.517-7.508-4.031-21.356-.491-41.099 1.899-10.589 6.309-20.591 11.06-28.229 2.374-3.817 4.822-7.026 7.067-9.411 1.817-1.93 3.447-3.264 4.754-3.974.356 1.249.676 3.052.919 5.35.316 2.998.494 6.744.481 11.005-.024 8.522-.807 19.058-2.721 29.731zM133.44 86.86c-8.962 17.927-23.308 26.245-30.546 29.179.664-7.632 2.159-21.627 11.127-39.566 4.809-9.621 11.861-17.97 18.574-23.954 3.354-2.99 6.608-5.376 9.434-7.03 2.288-1.338 4.228-2.156 5.683-2.468-.011 1.299-.213 3.119-.629 5.392-.542 2.966-1.429 6.61-2.643 10.694-2.429 8.168-6.152 18.054-11 27.752zM77.24 165.692c10.77 15.867 26.348 19.845 33.882 20.519-1.308-7.619-3.954-21.722-14.721-37.588-5.701-8.4-13.582-14.795-20.927-18.862-3.67-2.032-7.186-3.472-10.206-4.291-2.585-.7-4.738-.927-6.292-.732.1 1.345.462 3.227 1.11 5.561.803 2.887 2.014 6.366 3.597 10.201 3.166 7.668 7.797 16.705 13.557 25.192zM69.854 90.713c8.334 17.276 23.163 23.496 30.518 25.268-.18-7.729-.737-22.068-9.07-39.342-4.412-9.146-11.273-16.628-17.945-21.73-3.333-2.547-6.601-4.488-9.469-5.74-2.454-1.073-4.55-1.613-6.117-1.648-.098 1.345-.014 3.26.287 5.664.371 2.973 1.06 6.593 2.066 10.618 2.011 8.05 5.272 17.67 9.73 26.91zM127.04 39.44c-6.228 12.764-16.219 18.683-21.53 20.852.46-5.721 1.575-15.835 7.805-28.6 3.424-7.016 8.479-13.062 13.304-17.37 2.411-2.152 4.749-3.856 6.776-5.025 1.491-.86 2.761-1.399 3.741-1.642-.029.903-.163 2.108-.418 3.587-.375 2.177-.997 4.853-1.855 7.853-1.716 6-4.361 13.252-7.823 20.346z" stroke="#EBE7DC" stroke-width="2"/></svg>